<svg xmlns="http://www.w3.org/2000/svg" width="77" height="17" viewBox="0 0 77 17" fill="none">
  <g clip-path="url(#clip0_2217_46711)">
    <path d="M14.4299 4.7605C12.5169 4.7605 11.1127 6.45833 10.8947 7.94373H10.7493C10.5065 6.03347 9.49051 4.7605 7.50485 4.7605C5.3507 4.7605 4.23728 6.12842 3.77638 7.80372H3.65579L3.70369 5.11455H0V16.9076H3.70369V10.2805C3.70369 8.67597 4.45368 7.73291 5.68935 7.73291C6.75486 7.73291 7.21411 8.67597 7.21411 10.2805V16.9076H10.9426V10.2805C10.9426 8.67597 11.6926 7.73291 12.9035 7.73291C13.9921 7.73291 14.453 8.67597 14.453 10.2805V16.9076H18.1567V9.80892C18.1567 6.76571 17.2365 4.76211 14.4282 4.76211L14.4299 4.7605Z" fill="#FF2F55"/>
    <path d="M8.20698 3.63052C9.23615 3.63052 10.072 2.81781 10.072 1.8136C10.072 0.809387 9.23615 -0.00170898 8.20698 -0.00170898C7.17781 -0.00170898 6.34192 0.810996 6.34192 1.81521C6.34192 2.81942 7.17616 3.63213 8.20698 3.63213V3.63052Z" fill="#FF2F55"/>
    <path d="M1.86506 3.63213C2.89511 3.63213 3.73012 2.81867 3.73012 1.81521C3.73012 0.811753 2.89511 -0.00170898 1.86506 -0.00170898C0.835017 -0.00170898 0 0.811753 0 1.81521C0 2.81867 0.835017 3.63213 1.86506 3.63213Z" fill="#FF2F55"/>
    <path d="M14.5505 3.63213C15.5805 3.63213 16.4155 2.81867 16.4155 1.81521C16.4155 0.811753 15.5805 -0.00170898 14.5505 -0.00170898C13.5204 -0.00170898 12.6854 0.811753 12.6854 1.81521C12.6854 2.81867 13.5204 3.63213 14.5505 3.63213Z" fill="#FF2F55"/>
    <path d="M20.2333 10.7922C20.2333 7.02153 22.7591 4.67676 26.5107 4.67676C30.2623 4.67676 32.7882 7.02153 32.7882 10.7922C32.7882 14.5628 30.2623 16.9076 26.5107 16.9076C22.7591 16.9076 20.2333 14.5628 20.2333 10.7922ZM26.5107 13.9416C27.8802 13.9416 29.1307 13.1369 29.1307 10.7922C29.1307 8.44739 27.8802 7.6202 26.5107 7.6202C25.1412 7.6202 23.8907 8.47153 23.8907 10.7922C23.8907 13.1128 25.1412 13.9416 26.5107 13.9416Z" fill="#FF2F55"/>
    <path d="M34.5342 5.04462H38.1454L38.0513 8.49338H38.1686C38.5931 6.53967 39.1118 4.83862 41.4956 4.83862C41.897 4.83862 42.2274 4.88529 42.5347 4.93035V8.47085H41.4956C39.5612 8.47085 38.1438 8.65431 38.1438 12.4024V16.54H34.5326V5.04462H34.5342Z" fill="#FF2F55"/>
    <path d="M43.5011 12.7695H47.1833C47.1833 13.7576 47.7731 14.5172 48.9526 14.5172C50.0379 14.5172 50.5566 14.057 50.5566 13.4374C50.5566 12.8854 50.1783 12.4026 48.9526 12.2191L47.6541 12.0115C45.4124 11.643 43.9719 10.4247 43.9719 8.51769C43.9719 6.03451 45.9543 4.67786 49.1871 4.67786C52.42 4.67786 54.4255 6.07957 54.4503 8.86208H50.7681C50.7681 7.82729 50.1552 7.11436 49.093 7.11436C48.0308 7.11436 47.5121 7.61969 47.5121 8.21835C47.5121 8.72368 47.8424 9.18394 48.9988 9.36741L50.2973 9.57501C52.9404 9.9886 54.1909 11.0926 54.1909 13.2539C54.1909 15.5536 52.1375 16.9087 48.7874 16.9087C45.4372 16.9087 43.5011 15.8513 43.5011 12.7711V12.7695Z" fill="#FF2F55"/>
    <path d="M56.1503 10.7922C56.1503 6.90727 58.7934 4.67676 62.4277 4.67676C65.8737 4.67676 68.5168 6.51621 68.5168 10.3319C68.5168 10.8839 68.4689 11.275 68.3995 11.5727H59.5979C59.6458 13.5505 61.1326 14.1943 62.5004 14.1943C63.5147 14.1943 64.5538 13.8257 64.8842 12.7684H68.3764C67.904 15.596 65.3798 16.906 62.3121 16.906C59.2444 16.906 56.1536 15.044 56.1536 10.7906L56.1503 10.7922ZM64.8825 9.55138C64.9304 8.08046 63.8682 7.2066 62.3336 7.2066C60.7989 7.2066 59.7383 8.12552 59.6673 9.55138H64.8825Z" fill="#FF2F55"/>
    <path d="M70.8526 13.0917V0.447266H74.3927V12.493C74.3927 13.2285 74.6521 13.6421 75.4071 13.6421H76.091V16.5388H74.4621C72.0784 16.5388 70.851 15.4123 70.851 13.0901L70.8526 13.0917Z" fill="#FF2F55"/>
  </g>
  <defs>
    <clipPath id="clip0_2217_46711">
      <rect width="76.0909" height="16.9091" fill="white"/>
    </clipPath>
  </defs>
</svg>